HIERARCHY
ROOT Hips
{
	OFFSET -0.001795 -0.223333 0.028219
	CHANNELS 6 Xposition Yposition Zposition Zrotation Yrotation Xrotation 
	JOINT LeftUpLeg
	{
		OFFSET 0.069520 -0.091406 -0.006815
		CHANNELS 3 Zrotation Yrotation Xrotation
		JOINT LeftLeg
		{
			OFFSET 0.034277 -0.375199 -0.004496
			CHANNELS 3 Zrotation Yrotation Xrotation
			JOINT LeftFoot
			{
				OFFSET -0.013596 -0.397961 -0.043693
				CHANNELS 3 Zrotation Yrotation Xrotation
				JOINT LeftToe
				{
					OFFSET 0.026358 -0.055791 0.119288
					CHANNELS 3 Zrotation Yrotation Xrotation
					End Site
					{
						OFFSET 0.000000 0.000000 0.000000
					}
				}
			}
		}
	}
	JOINT RightUpLeg
	{
		OFFSET -0.067670 -0.090522 -0.004320
		CHANNELS 3 Zrotation Yrotation Xrotation
		JOINT RightLeg
		{
			OFFSET -0.038290 -0.382569 -0.008850
			CHANNELS 3 Zrotation Yrotation Xrotation
			JOINT RightFoot
			{
				OFFSET 0.015774 -0.398415 -0.042312
				CHANNELS 3 Zrotation Yrotation Xrotation
				JOINT RightToe
				{
					OFFSET -0.025372 -0.048144 0.123348
					CHANNELS 3 Zrotation Yrotation Xrotation
					End Site
					{
						OFFSET 0.000000 0.000000 0.000000
					}
				}
			}
		}
	}
	JOINT Spine
	{
		OFFSET -0.002533 0.108963 -0.026696
		CHANNELS 3 Zrotation Yrotation Xrotation
		JOINT Spine1
		{
			OFFSET 0.005487 0.135180 0.001092
			CHANNELS 3 Zrotation Yrotation Xrotation
			JOINT Spine2
			{
				OFFSET 0.001457 0.052922 0.025425
				CHANNELS 3 Zrotation Yrotation Xrotation
				JOINT Neck
				{
					OFFSET -0.002778 0.213870 -0.042857
					CHANNELS 3 Zrotation Yrotation Xrotation
					JOINT Head
					{
						OFFSET 0.005152 0.064970 0.051349
						CHANNELS 3 Zrotation Yrotation Xrotation
						End Site
						{
							OFFSET 0.000000 0.000000 0.000000
						}
					}
				}
				JOINT LeftShoulder
				{
					OFFSET 0.078845 0.121749 -0.034090
					CHANNELS 3 Zrotation Yrotation Xrotation
					JOINT LeftArm
					{
						OFFSET 0.090977 0.030469 -0.008868
						CHANNELS 3 Zrotation Yrotation Xrotation
						JOINT LeftForeArm
						{
							OFFSET 0.259612 -0.012772 -0.027456
							CHANNELS 3 Zrotation Yrotation Xrotation
							JOINT LeftHand
							{
								OFFSET 0.249234 0.008986 -0.001171
								CHANNELS 3 Zrotation Yrotation Xrotation
								End Site
								{
									OFFSET 0.000000 0.000000 0.000000
								}
							}
						}
					}
				}
				JOINT RightShoulder
				{
					OFFSET -0.081759 0.118833 -0.038615
					CHANNELS 3 Zrotation Yrotation Xrotation
					JOINT RightArm
					{
						OFFSET -0.096012 0.032551 -0.009143
						CHANNELS 3 Zrotation Yrotation Xrotation
						JOINT RightForeArm
						{
							OFFSET -0.253742 -0.013329 -0.021401
							CHANNELS 3 Zrotation Yrotation Xrotation
							JOINT RightHand
							{
								OFFSET -0.255298 0.007772 -0.005559
								CHANNELS 3 Zrotation Yrotation Xrotation
								End Site
								{
									OFFSET 0.000000 0.000000 0.000000
								}
							}
						}
					}
				}
			}
		}
	}
}
MOTION
Frames: 10
Frame Time: 0.05000000
0.000000 0.775573 0.000000 3.316196 -15.844269 25.394758 8.692207 3.471607 -80.738213 -20.680205 27.384999 88.263910 15.845762 30.955302 -0.062044 0.000000 0.000000 0.000000 -18.831590 0.085172 -62.894963 22.950993 -14.343246 66.545467 -6.271108 -16.341653 -28.241529 0.000000 0.000000 0.000000 -3.484996 0.879616 -16.102673 0.968946 0.047143 -15.803974 -1.664665 -4.766452 42.222039 -2.633722 1.303997 -15.652371 0.000000 0.000000 0.000000 24.935605 -1.397331 -1.504409 -44.401282 -14.134768 1.405908 38.385062 -44.055067 -10.172478 0.000000 0.000000 0.000000 -17.140490 -2.030621 1.844540 69.921395 6.271887 -9.169687 38.023718 49.295003 19.052670 0.000000 0.000000 0.000000 
0.749316 0.747966 1.898372 2.971440 -1.009482 32.807528 17.922356 8.311194 -94.225803 -29.819235 25.978419 68.954378 20.294305 38.907949 5.331628 0.000000 0.000000 0.000000 -21.447979 -3.745582 -65.118719 16.874763 -16.907246 72.754245 -5.370161 -9.600909 -25.538872 0.000000 0.000000 0.000000 -6.354113 1.288529 -22.244736 1.421840 -0.018423 -12.744205 -1.113227 -3.800109 43.644581 -3.924751 3.368392 -8.850402 0.000000 0.000000 0.000000 19.620195 -2.326445 0.698462 -47.009173 -15.789459 -0.633826 35.453483 -44.656688 -11.137010 0.000000 0.000000 0.000000 -15.790622 7.832854 2.161660 73.706986 21.457432 5.690266 2.096953 50.153450 4.435500 0.000000 0.000000 0.000000 
2.071387 0.725992 3.553693 1.685111 18.304042 35.675462 31.864585 15.837550 -99.833120 -41.233996 24.387288 44.632721 22.738460 41.735826 17.071633 0.000000 0.000000 0.000000 -18.756026 -4.682134 -60.353254 7.781883 -16.308830 78.343064 -4.570821 5.073229 -30.243973 0.000000 0.000000 0.000000 -7.926107 1.427709 -22.840496 2.010490 -0.162548 -9.334579 0.060090 -2.801134 42.734699 -4.271197 4.493404 -8.873815 0.000000 0.000000 0.000000 13.191382 -3.994880 2.671339 -43.805315 -18.528349 -1.914766 47.630924 -47.145439 -20.800472 0.000000 0.000000 0.000000 -16.248995 11.253457 1.364758 73.279914 32.389325 18.532782 -25.018835 46.291551 -5.667898 0.000000 0.000000 0.000000 
4.074144 0.707486 4.740589 -0.020287 39.677805 38.556889 52.184043 23.256266 -93.082607 -49.241039 18.491406 19.239764 32.373035 49.589106 37.096407 0.000000 0.000000 0.000000 -19.164127 -5.308908 -50.485588 0.388594 -16.809790 75.561543 -4.444755 16.343873 -37.445759 0.000000 0.000000 0.000000 -7.941004 1.357770 -23.254920 1.177425 0.235716 -9.064632 0.330964 1.512269 43.435294 -2.413455 3.911962 -7.137038 0.000000 0.000000 0.000000 13.069913 -7.473449 5.101666 -40.625803 -25.934979 -1.659830 49.803128 -42.573238 -24.783446 0.000000 0.000000 0.000000 -16.824340 15.208717 0.878340 67.159084 39.586438 26.470220 -38.043043 40.363038 -8.348255 0.000000 0.000000 0.000000 
6.684965 0.698962 5.053689 -5.161747 64.423600 38.890366 82.344060 25.593999 -77.488766 -58.066988 10.806469 -9.214213 55.290134 55.106418 68.491497 0.000000 0.000000 0.000000 -17.385850 -4.237485 -36.588270 -2.282687 -16.397927 59.498807 -0.243802 19.886902 -36.952247 0.000000 0.000000 0.000000 -7.184464 0.475602 -25.740632 -1.218384 0.808220 -6.488729 0.655739 5.200371 44.946823 -3.340119 3.722237 -2.497588 0.000000 0.000000 0.000000 13.225008 -12.177557 7.276125 -34.823560 -32.512748 -1.884480 58.740160 -36.503019 -32.661824 0.000000 0.000000 0.000000 -16.828175 19.703890 1.637165 51.012873 46.713037 25.673050 -51.904153 29.635652 -7.617315 0.000000 0.000000 0.000000 
9.445261 0.709385 4.203097 -111.204471 85.159896 -62.665205 115.501564 16.866569 -65.114341 -62.592466 4.037475 -38.572193 76.839479 53.668492 92.001161 0.000000 0.000000 0.000000 -11.614659 -3.931675 -25.898293 -1.139399 -13.478834 38.918929 6.636807 16.589682 -26.673080 0.000000 0.000000 0.000000 -8.228153 -2.121159 -24.667843 -1.670521 0.251889 -4.248017 -0.470805 6.042286 43.838806 -5.706980 2.230186 2.938317 0.000000 0.000000 0.000000 9.990124 -18.661592 7.441959 -23.887966 -37.414702 -2.704493 57.490893 -31.369497 -33.978122 0.000000 0.000000 0.000000 -12.837542 23.106617 5.496983 34.488322 47.978553 18.490851 -62.013257 23.995718 -6.651478 0.000000 0.000000 0.000000 
11.715072 0.729935 2.381187 -166.114377 59.850953 -111.707067 162.197866 -9.702565 -59.048468 -37.005255 12.935692 -83.559636 112.814477 33.601166 135.317763 0.000000 0.000000 0.000000 -2.916219 -4.658994 -18.644391 -3.918637 -7.306558 20.766196 13.722390 14.543653 -5.275662 0.000000 0.000000 0.000000 -8.948999 -7.194320 -18.447767 -1.631103 -1.945888 -3.149052 -0.674001 9.840149 40.076249 -13.432837 1.804570 3.718355 0.000000 0.000000 0.000000 4.171111 -30.993597 3.472629 -4.512214 -31.909449 -5.719168 45.426305 -26.361078 -24.961118 0.000000 0.000000 0.000000 -10.661199 22.774540 11.111659 22.593908 42.739075 12.016840 -59.191884 15.917426 -1.680766 0.000000 0.000000 0.000000 
13.107618 0.752101 -0.177707 -168.087398 35.913354 -111.093821 -149.518522 -29.889655 -75.234390 -7.747321 48.763928 -92.833378 95.154993 9.692304 163.760860 0.000000 0.000000 0.000000 1.764233 -7.072124 -17.194212 -8.623713 -9.116683 19.539273 35.303485 13.136420 4.105382 0.000000 0.000000 0.000000 -12.547088 -9.654629 -9.586160 -9.239420 -12.136536 3.960631 6.964101 19.195855 30.100536 -31.668329 -5.351347 10.215875 0.000000 0.000000 0.000000 -4.930799 -44.153789 -9.241475 4.755105 -22.102629 -5.589418 28.051299 -34.170004 -14.339859 0.000000 0.000000 0.000000 1.135796 21.641372 31.306694 -3.462702 40.403280 0.759238 -57.739454 2.609890 2.436059 0.000000 0.000000 0.000000 
13.230093 0.773235 -3.054229 -167.333427 10.854591 -110.754835 -112.591197 -29.287314 -96.232410 63.145161 56.073030 -29.146028 -57.690306 46.216664 121.718148 0.000000 0.000000 0.000000 1.422451 -11.923496 -18.081281 -29.228635 -21.888755 37.982909 83.112302 -2.237552 16.779668 0.000000 0.000000 0.000000 -17.748643 -7.260665 4.496242 -21.653238 -38.746453 12.438693 21.046429 44.140578 23.812186 -74.503837 -24.263734 22.181544 0.000000 0.000000 0.000000 -6.280721 -56.277805 -37.576391 3.376125 -13.234532 -0.870294 2.879033 -37.288053 -0.318792 0.000000 0.000000 0.000000 15.576075 16.519308 66.347203 -30.256707 27.606110 -6.771110 -53.205881 -11.590713 2.984031 0.000000 0.000000 0.000000 
12.062424 0.793453 -5.565375 -163.658559 -13.012581 -111.210725 -169.785863 -23.684988 -82.552500 42.112350 4.664611 -63.209610 -133.138467 -22.299949 102.595381 0.000000 0.000000 0.000000 -18.929397 20.694999 -18.633795 80.072001 32.171655 49.462424 -36.606087 43.771642 113.069201 0.000000 0.000000 0.000000 -9.139817 18.000975 24.793851 8.610706 39.763992 -24.052059 -40.193726 -47.463395 47.114319 157.018057 -17.918867 78.562101 0.000000 0.000000 0.000000 22.675897 -51.887806 -129.680834 3.278890 5.248567 -0.423837 -45.493493 -17.028768 6.744756 0.000000 0.000000 0.000000 -10.526362 32.930594 -170.609920 -19.212403 -23.447108 8.847978 53.795160 -16.806720 -22.912491 0.000000 0.000000 0.000000 
